# xmcd
#
# Track frame offsets:
#	150
#	19795
#	40551
#	54963
#	70960
#	91930
#	97932
#	106622
#	118162
#	136461
#	147218
#	161860
#	189850
#	206271
#	218084
#	230527
#	239005
#	251566
#	268159
#	276905
#	291212
#
# Disc length: 3992 seconds
#
# Revision: 0
# Processed by: cddbd v1.4PL0 Copyright (c) Steve Scherf et al.
# Submitted via: EasyCDDAExtractor 5.0.5.1
#
DISCID=2e0f9615
DTITLE=Алексей Козлов - Пионерские-блатные 2
DYEAR=1998
DGENRE=Country
TTITLE0=Мурка
TTITLE1=С Одесского кичмана
TTITLE2=Гоп со смыком
TTITLE3=Вот бледной луной озарился
TTITLE4=Медвежатник
TTITLE5=Урка при фонариках
TTITLE6=Цыпленок жареный
TTITLE7=Моя красавица
TTITLE8=На Дерибасовской открылася пивная
TTITLE9=Еврейская Мурка
TTITLE10=На Молдаванке
TTITLE11=Когда с тобой мы встретились
TTITLE12=Марсель
TTITLE13=Жил-был великий писатель
TTITLE14=Я был батальонный разведчик
TTITLE15=Патрис Лумумба
TTITLE16=Собирался кардинал по грибы
TTITLE17=Серега-пролетарий
TTITLE18=На острове Таити
TTITLE19=Новобранцы
TTITLE20=Сидели мы на крыше
EXTD=YEAR: 1998
EXTT0=
EXTT1=
EXTT2=
EXTT3=
EXTT4=
EXTT5=
EXTT6=
EXTT7=
EXTT8=
EXTT9=
EXTT10=
EXTT11=
EXTT12=
EXTT13=
EXTT14=
EXTT15=
EXTT16=
EXTT17=
EXTT18=
EXTT19=
EXTT20=
PLAYORDER=
